<?xml version="1.0" encoding="UTF-8"?>
<svg id="Layer_2" data-name="Layer 2" xmlns="http://www.w3.org/2000/svg" xmlns:xlink="http://www.w3.org/1999/xlink" viewBox="0 0 595.65 129.85">
  <defs>
    <style>
      .cls-1 {
        fill: none;
      }

      .cls-2 {
        font-family: OCRBStd, 'OCR B Std';
        font-size: 50px;
      }

      .cls-3 {
        fill: #2e1a42;
      }

      .cls-4 {
        fill: #ffff82;
      }

      .cls-5 {
        letter-spacing: 0em;
      }

      .cls-6 {
        letter-spacing: -.1em;
      }

      .cls-7 {
        letter-spacing: -.08em;
      }

      .cls-8 {
        letter-spacing: -.06em;
      }

      .cls-9 {
        letter-spacing: -.06em;
      }

      .cls-10 {
        letter-spacing: -.11em;
      }

      .cls-11 {
        letter-spacing: -.11em;
      }

      .cls-12 {
        letter-spacing: -.02em;
      }

      .cls-13 {
        letter-spacing: -.03em;
      }

      .cls-14 {
        letter-spacing: -.02em;
      }

      .cls-15 {
        letter-spacing: -.04em;
      }

      .cls-16 {
        letter-spacing: -.05em;
      }

      .cls-17 {
        letter-spacing: -.05em;
      }

      .cls-18 {
        letter-spacing: -.04em;
      }

      .cls-19 {
        letter-spacing: -.01em;
      }

      .cls-20 {
        letter-spacing: 0em;
      }

      .cls-21 {
        clip-path: url(#clippath);
      }
    </style>
    <clipPath id="clippath">
      <rect class="cls-1" x="48.12" y="34.75" width="35.79" height="57.66"/>
    </clipPath>
  </defs>
  <g id="Layer_1-2" data-name="Layer 1">
    <g>
      <text class="cls-2" transform="translate(185.81 47.01) scale(.93 1)"><tspan class="cls-20" x="0" y="0">N</tspan><tspan class="cls-17" x="35.52" y="0">O</tspan><tspan class="cls-10" x="68.9" y="0">T</tspan><tspan class="cls-8" x="99.22" y="0">–</tspan><tspan class="cls-18" x="131.98" y="0">S</tspan><tspan x="166.03" y="0">O </tspan><tspan class="cls-9" x="238.03" y="0">D</tspan><tspan class="cls-16" x="271.07" y="0">A</tspan><tspan class="cls-7" x="304.58" y="0">I</tspan><tspan class="cls-11" x="336.59" y="0">L</tspan><tspan class="cls-5" x="366.96" y="0">Y </tspan><tspan class="cls-15" x="0" y="60">S</tspan><tspan class="cls-6" x="33.81" y="60">T</tspan><tspan class="cls-12" x="64.84" y="60">A</tspan><tspan class="cls-14" x="99.73" y="60">N</tspan><tspan class="cls-13" x="134.79" y="60">D</tspan><tspan class="cls-19" x="169.48" y="60">U</tspan><tspan x="204.82" y="60">P</tspan></text>
      <g>
        <path class="cls-4" d="M207.89,55.51c-2.15,0-4.16-.81-5.69-2.19-1.51,1.36-3.5,2.19-5.69,2.19h-4.39c-4.69,0-8.5-3.81-8.5-8.5V13.1c0-4.69,3.81-8.5,8.5-8.5h5.6c2.06,0,4,.74,5.51,2.03,1.48-1.26,3.41-2.03,5.51-2.03h4.39c4.69,0,8.5,3.81,8.5,8.5v33.9c0,4.69-3.81,8.5-8.5,8.5h-5.23Z"/>
        <path class="cls-4" d="M235.78,55.96c-12.93,0-19.7-13.05-19.7-25.95s6.91-25.85,19.7-25.85,19.7,13.32,19.7,25.85-6.77,25.95-19.7,25.95Z"/>
        <path class="cls-4" d="M286.37,13.1v4.7c0,.39-.03.77-.08,1.15-.07.52-.18,1.02-.34,1.5-1.05,3.19-3.93,5.54-7.39,5.82-.23.02-.46.03-.69.03h-.04v20.7c0,4.7-3.81,8.5-8.5,8.5h-4.81c-4.69,0-8.5-3.8-8.5-8.5v-20.7h-.04c-.23,0-.47-.01-.7-.03-.53-.04-1.05-.13-1.55-.28-3.6-.98-6.25-4.27-6.25-8.19v-4.7c0-.63.07-1.25.2-1.84.12-.57.31-1.11.54-1.63,1.33-2.96,4.3-5.03,7.76-5.03h21.89c4.69,0,8.5,3.81,8.5,8.5Z"/>
        <path class="cls-4" d="M305.05,26.95c.28,0,.5.23.5.5v5.15c0,.28-.22.5-.5.5h-19.6c-.28,0-.5-.22-.5-.5v-5.15c0-.27.22-.5.5-.5h19.6Z"/>
        <path class="cls-4" d="M308.12,21.16c-.93-.46-1.97-.71-3.07-.71h-19.1c-1.05,3.19-3.93,5.54-7.39,5.82-.08.38-.11.78-.11,1.18v5.15c0,3.87,3.13,7,7,7h19.6c.81,0,1.59-.14,2.31-.4.53-.17,1.03-.42,1.49-.72v.17c0,.5.03,1.01.08,1.51-.46.24-.94.44-1.44.58-.77.24-1.59.36-2.44.36h-19.6c-3.34,0-6.23-1.93-7.62-4.73-.56-1.14-.88-2.42-.88-3.77v-5.15c0-.93.15-1.82.43-2.65,1.04-3.19,3.92-5.54,7.38-5.82.23-.02.46-.03.69-.03h19.6c1.14,0,2.22.22,3.21.63.5.2.97.45,1.42.74-.05.57-.08,1.15-.08,1.73v.09c-.45-.4-.94-.72-1.48-.98Z"/>
        <path class="cls-4" d="M312.05,30.39c-1.44-2.14-2.43-4.84-2.45-8.25,1.5,1.28,2.45,3.18,2.45,5.31v2.94Z"/>
        <path class="cls-4" d="M308.85,38.48v-.88c0-2.46,1.27-4.63,3.2-5.87v.87c0,2.47-1.27,4.64-3.2,5.88Z"/>
        <path class="cls-3" d="M337.93,30c0-5.1,1.14-10.32,3.36-14.73-2.26-5.26-7.56-9.62-14.94-9.62-8.95,0-15.84,6.2-16.67,14.67-.05.57-.08,1.15-.08,1.73v.09c1.5,1.28,2.45,3.18,2.45,5.31v2.94c-1.44-2.14-2.43-4.84-2.45-8.25-.45-.4-.94-.72-1.48-.98-.93-.46-1.97-.71-3.07-.71h-19.1c-1.05,3.19-3.93,5.54-7.39,5.82-.08.38-.11.78-.11,1.18v5.15c0,3.87,3.13,7,7,7h19.6c.81,0,1.59-.14,2.31-.4.53-.17,1.03-.42,1.49-.72v-.88c0-2.46,1.27-4.63,3.2-5.87v.87c0,2.47-1.27,4.64-3.2,5.88v.17c0,.5.03,1.01.08,1.51.76,7.27,6.95,14.29,16.86,14.29,7.07,0,12.89-3.75,15.51-9.42-2.23-4.43-3.37-9.74-3.37-15.03ZM305.55,32.6c0,.28-.22.5-.5.5h-19.6c-.28,0-.5-.22-.5-.5v-5.15c0-.27.22-.5.5-.5h19.6c.28,0,.5.23.5.5v5.15ZM325.79,47.95c-5.13,0-10.44-3.48-10.44-9.3v-1.05c0-.27.22-.5.5-.5h4.81c.27,0,.49.22.5.5.04,2.82,1.86,4.65,4.63,4.65,2.29,0,4.73-1.1,4.73-4.2s-2.8-4.47-6.05-6.07l-.86-.43c-3.96-2.04-7.51-4.3-7.51-9.5,0-6.5,5.16-9.9,10.25-9.9,4.66,0,9.65,3.56,9.65,8.85v.65c0,.28-.22.5-.5.5h-4.81c-.14,0-.27-.06-.36-.16-.1-.1-.15-.23-.14-.37.07-1.07-.2-1.95-.82-2.61-.7-.75-1.81-1.16-3.11-1.16-1.99,0-4.36.65-4.36,3.75,0,2.24,1.7,3.38,3.37,4.2l2.8,1.4c4.35,2.23,8.26,4.74,8.26,10.8,0,6.53-5.3,9.95-10.54,9.95Z"/>
        <path class="cls-4" d="M312.05,30.39c-1.44-2.14-2.43-4.84-2.45-8.25,1.5,1.28,2.45,3.18,2.45,5.31v2.94Z"/>
        <path class="cls-4" d="M308.85,38.48v-.88c0-2.46,1.27-4.63,3.2-5.87v.87c0,2.47-1.27,4.64-3.2,5.88Z"/>
        <path class="cls-4" d="M330.52,38.05c0-3.09-2.8-4.47-6.05-6.07l-.86-.43c-3.96-2.04-7.51-4.3-7.51-9.5,0-6.5,5.16-9.9,10.25-9.9,4.66,0,9.65,3.56,9.65,8.85v.65c0,.28-.22.5-.5.5h-4.81c-.14,0-.27-.06-.36-.16-.1-.1-.15-.23-.14-.37.07-1.07-.2-1.95-.82-2.61-.7-.75-1.81-1.16-3.11-1.16-1.99,0-4.36.65-4.36,3.75,0,2.24,1.7,3.38,3.37,4.2l2.8,1.4c4.35,2.23,8.26,4.74,8.26,10.8,0,6.53-5.3,9.95-10.54,9.95s-10.44-3.48-10.44-9.3v-1.05c0-.27.22-.5.5-.5h4.81c.27,0,.49.22.5.5.04,2.82,1.86,4.65,4.63,4.65,2.29,0,4.73-1.1,4.73-4.2Z"/>
        <path class="cls-4" d="M344.33,38c0,2.51-.48,4.86-1.36,6.99-.23.57-.49,1.12-.78,1.65-3.05,5.64-9.11,9.31-16.4,9.31-10.6,0-17.28-7.41-18.3-15.21-.07-.51-.11-1.03-.13-1.54.53-.17,1.03-.42,1.49-.72v.17c0,.5.03,1.01.08,1.51.76,7.27,6.95,14.29,16.86,14.29,7.07,0,12.89-3.75,15.51-9.42-2.23-4.43-3.37-9.74-3.37-15.03s1.14-10.32,3.36-14.73c-2.26-5.26-7.56-9.62-14.94-9.62-8.95,0-15.84,6.2-16.67,14.67-.05.57-.08,1.15-.08,1.73v.09c-.45-.4-.94-.72-1.48-.98.02-.53.07-1.06.14-1.58,1.15-8.95,8.54-15.43,18.09-15.43,7.57,0,13.14,4.22,15.83,9.51.28.56.54,1.12.75,1.7.7,1.84,1.07,3.76,1.07,5.64v.65c0,2.43-1.02,4.63-2.66,6.18,1.75,2.57,2.99,5.89,2.99,10.17Z"/>
        <path class="cls-4" d="M377.34,30c0,12.9-6.77,25.95-19.71,25.95-6.97,0-12.15-3.79-15.44-9.31-.32-.52-.61-1.06-.89-1.61-2.23-4.43-3.37-9.74-3.37-15.03s1.14-10.32,3.36-14.73c.27-.55.57-1.09.89-1.61,3.3-5.59,8.51-9.51,15.45-9.51,12.8,0,19.71,13.32,19.71,25.85Z"/>
        <path class="cls-4" d="M415.75,55.51c-4.69,0-8.5-3.81-8.5-8.5V13.1c0-4.69,3.81-8.5,8.5-8.5h2.99c14.29,0,25.07,11.24,25.07,26.15s-10.06,24.75-24.46,24.75h-3.59Z"/>
        <path class="cls-4" d="M462.52,55.51c-2.76,0-5.27-1.33-6.84-3.45-1.56,2.12-4.07,3.45-6.84,3.45h-4.85c-2.62,0-5.1-1.21-6.71-3.28-1.61-2.07-2.17-4.77-1.53-7.31l8.63-33.9c.96-3.77,4.35-6.4,8.24-6.4h6.12c3.89,0,7.28,2.64,8.24,6.4l8.63,33.9c.65,2.54.08,5.24-1.53,7.31-1.61,2.07-4.09,3.28-6.71,3.28h-4.85Z"/>
        <path class="cls-4" d="M478.87,55.51c-4.69,0-8.5-3.81-8.5-8.5v-4.7c0-3.71,2.38-6.87,5.69-8.03v-8.84c-2.82-1.38-4.76-4.28-4.76-7.64v-4.7c0-4.69,3.81-8.5,8.5-8.5h14.28c4.69,0,8.5,3.81,8.5,8.5v4.7c0,3.33-1.92,6.22-4.71,7.61v8.86c3.32,1.16,5.69,4.32,5.69,8.03v4.7c0,4.69-3.81,8.5-8.5,8.5h-16.2Z"/>
        <path class="cls-4" d="M507.78,55.51c-4.69,0-8.5-3.81-8.5-8.5V13.1c0-4.69,3.81-8.5,8.5-8.5h4.81c4.69,0,8.5,3.81,8.5,8.5v20.7h7.7c4.69,0,8.5,3.81,8.5,8.5v4.7c0,4.69-3.81,8.5-8.5,8.5h-21Z"/>
        <path class="cls-4" d="M542.85,55.51c-4.69,0-8.5-3.81-8.5-8.5v-13.85l-8.11-16.26c-1.32-2.63-1.17-5.76.38-8.27,1.55-2.5,4.28-4.03,7.23-4.03h5.27c2.34,0,4.54.96,6.11,2.6,1.58-1.63,3.77-2.6,6.12-2.6h5.27c2.94,0,5.67,1.52,7.22,4.02,1.55,2.5,1.7,5.62.39,8.26l-8.08,16.26v13.86c0,4.69-3.81,8.5-8.5,8.5h-4.81Z"/>
        <path class="cls-4" d="M202.57,115.96c-11.54,0-18.44-8.8-18.44-17.3v-1.05c0-2.7,1.26-5.11,3.23-6.67-1.47-2.31-2.48-5.22-2.48-8.88,0-10.21,7.85-17.9,18.26-17.9s17.65,8.75,17.65,16.85v.65c0,2.43-1.02,4.63-2.66,6.17,1.75,2.58,2.98,5.89,2.98,10.18,0,10.23-7.97,17.95-18.54,17.95Z"/>
        <path class="cls-4" d="M231.75,115.51c-4.69,0-8.5-3.81-8.5-8.5v-20.7h-.04c-4.69,0-8.5-3.81-8.5-8.5v-4.7c0-4.69,3.81-8.5,8.5-8.5h21.89c4.69,0,8.5,3.81,8.5,8.5v4.7c0,4.69-3.81,8.5-8.5,8.5h-.04v20.7c0,4.69-3.81,8.5-8.5,8.5h-4.81Z"/>
        <path class="cls-4" d="M269.97,115.51c-2.76,0-5.27-1.33-6.84-3.45-1.56,2.12-4.07,3.45-6.84,3.45h-4.85c-2.62,0-5.1-1.21-6.71-3.28-1.61-2.07-2.17-4.77-1.53-7.31l8.63-33.9c.96-3.77,4.35-6.4,8.24-6.4h6.12c3.89,0,7.28,2.64,8.24,6.4l8.63,33.9c.65,2.54.08,5.24-1.53,7.31-1.61,2.07-4.09,3.28-6.71,3.28h-4.85Z"/>
        <path class="cls-4" d="M301,115.51c-2.15,0-4.16-.81-5.69-2.19-1.51,1.36-3.5,2.19-5.69,2.19h-4.39c-4.69,0-8.5-3.81-8.5-8.5v-33.9c0-4.69,3.81-8.5,8.5-8.5h5.6c2.06,0,4,.74,5.51,2.03,1.48-1.26,3.41-2.03,5.51-2.03h4.39c4.69,0,8.5,3.81,8.5,8.5v33.9c0,4.69-3.81,8.5-8.5,8.5h-5.23Z"/>
        <path class="cls-4" d="M319.36,115.51c-4.69,0-8.5-3.81-8.5-8.5v-33.9c0-4.69,3.81-8.5,8.5-8.5h2.99c14.29,0,25.07,11.24,25.07,26.15s-10.06,24.75-24.46,24.75h-3.59Z"/>
        <path class="cls-4" d="M360.85,115.96c-11.84,0-19.19-7.78-19.19-20.3v-22.55c0-4.69,3.81-8.5,8.5-8.5h4.81c2.28,0,4.35.9,5.88,2.36,1.53-1.46,3.6-2.36,5.88-2.36h4.81c4.69,0,8.5,3.81,8.5,8.5v22.55c0,12.52-7.35,20.3-19.19,20.3Z"/>
        <path class="cls-4" d="M384.32,115.51c-4.69,0-8.5-3.81-8.5-8.5v-33.9c0-4.69,3.81-8.5,8.5-8.5h10.69c11.69,0,19.24,7.3,19.24,18.6,0,10-6.56,17-16.62,18.14v5.66c0,4.69-3.81,8.5-8.5,8.5h-4.81Z"/>
      </g>
      <g>
        <path class="cls-3" d="M207.89,54.01c-2.29,0-4.4-1.11-5.69-2.93-1.27,1.77-3.35,2.93-5.69,2.93h-4.39c-3.87,0-7-3.13-7-7V13.1c0-3.87,3.13-7,7-7h5.6c2.18,0,4.2,1.01,5.51,2.68,1.28-1.63,3.27-2.68,5.51-2.68h4.39c3.87,0,7,3.13,7,7v33.9c0,3.87-3.13,7-7,7h-5.23Z"/>
        <path class="cls-3" d="M235.78,54.46c-11.95,0-18.2-12.3-18.2-24.45s6.38-24.35,18.2-24.35,18.2,12.55,18.2,24.35-6.25,24.45-18.2,24.45Z"/>
        <path class="cls-3" d="M264.52,54.01c-3.87,0-7-3.13-7-7v-22.2h-1.54c-3.87,0-7-3.13-7-7v-4.7c0-3.87,3.13-7,7-7h21.89c3.87,0,7,3.13,7,7v4.7c0,3.87-3.13,7-7,7h-1.54v22.2c0,3.87-3.13,7-7,7h-4.81Z"/>
        <path class="cls-3" d="M285.95,20.45c-1.05,3.19-3.93,5.54-7.39,5.82.08-.55.24-1.08.46-1.57.92-2.16,2.9-3.76,5.29-4.15.37-.07.75-.1,1.14-.1h.5Z"/>
        <path class="cls-3" d="M305.55,27.45v5.15c0,.28-.22.5-.5.5h-19.6c-.28,0-.5-.22-.5-.5v-5.15c0-.27.22-.5.5-.5h19.6c.28,0,.5.23.5.5Z"/>
        <path class="cls-3" d="M312.05,27.45v2.94c-1.44-2.14-2.43-4.84-2.45-8.25,1.5,1.28,2.45,3.18,2.45,5.31Z"/>
        <path class="cls-3" d="M312.05,31.73v.87c0,2.47-1.27,4.64-3.2,5.88v-.88c0-2.46,1.27-4.63,3.2-5.87Z"/>
        <path class="cls-3" d="M312.05,27.45v2.94c-1.44-2.14-2.43-4.84-2.45-8.25,1.5,1.28,2.45,3.18,2.45,5.31Z"/>
        <path class="cls-3" d="M312.05,31.73v.87c0,2.47-1.27,4.64-3.2,5.88v-.88c0-2.46,1.27-4.63,3.2-5.87Z"/>
        <path class="cls-3" d="M336.33,38c0,6.53-5.3,9.95-10.54,9.95s-10.44-3.48-10.44-9.3v-1.05c0-.27.22-.5.5-.5h4.81c.27,0,.49.22.5.5.04,2.82,1.86,4.65,4.63,4.65,2.29,0,4.73-1.1,4.73-4.2s-2.8-4.47-6.05-6.07l-.86-.43c-3.96-2.04-7.51-4.3-7.51-9.5,0-6.5,5.16-9.9,10.25-9.9,4.66,0,9.65,3.56,9.65,8.85v.65c0,.28-.22.5-.5.5h-4.81c-.14,0-.27-.06-.36-.16-.1-.1-.15-.23-.14-.37.07-1.07-.2-1.95-.82-2.61-.7-.75-1.81-1.16-3.11-1.16-1.99,0-4.36.65-4.36,3.75,0,2.24,1.7,3.38,3.37,4.2l2.8,1.4c4.35,2.23,8.26,4.74,8.26,10.8Z"/>
        <path class="cls-3" d="M342.83,38c0,1.8-.27,3.52-.78,5.11-.2.66-.45,1.3-.75,1.92-2.23-4.43-3.37-9.74-3.37-15.03s1.14-10.32,3.36-14.73c.28.66.52,1.34.7,2.02.34,1.23.51,2.48.51,3.71v.65c0,2.36-1.17,4.46-2.96,5.73-.08.05-.17.11-.25.16.07.09.14.18.21.27,1.91,2.47,3.33,5.76,3.33,10.19Z"/>
        <path class="cls-3" d="M357.63,54.46c-11.95,0-18.2-12.3-18.2-24.45s6.38-24.35,18.2-24.35,18.2,12.55,18.2,24.35-6.25,24.45-18.2,24.45Z"/>
        <path class="cls-3" d="M415.75,54.01c-3.87,0-7-3.13-7-7V13.1c0-3.87,3.13-7,7-7h2.99c13.44,0,23.57,10.6,23.57,24.65s-9.44,23.25-22.96,23.25h-3.59Z"/>
        <path class="cls-3" d="M462.52,54.01c-3.25,0-6.07-2.24-6.81-5.4l-.02-.1-.02.07c-.73,3.18-3.56,5.43-6.82,5.43h-4.85c-2.16,0-4.2-1-5.53-2.7s-1.79-3.93-1.26-6.02l8.63-33.9c.79-3.1,3.58-5.27,6.78-5.27h6.12c3.2,0,5.99,2.17,6.78,5.27l8.63,33.9c.53,2.09.07,4.32-1.26,6.02s-3.37,2.7-5.53,2.7h-4.85Z"/>
        <path class="cls-3" d="M478.87,54.01c-3.87,0-7-3.13-7-7v-4.7c0-3.42,2.45-6.27,5.69-6.88v-10.99c-2.77-.93-4.76-3.55-4.76-6.63v-4.7c0-3.87,3.13-7,7-7h14.28c3.87,0,7,3.13,7,7v4.7c0,3.07-1.97,5.67-4.71,6.62v11c3.24.61,5.69,3.46,5.69,6.88v4.7c0,3.87-3.13,7-7,7h-16.2Z"/>
        <path class="cls-3" d="M507.78,54.01c-3.87,0-7-3.13-7-7V13.1c0-3.87,3.13-7,7-7h4.81c3.87,0,7,3.13,7,7v22.2h9.2c3.87,0,7,3.13,7,7v4.7c0,3.87-3.13,7-7,7h-21Z"/>
        <path class="cls-3" d="M542.85,54.01c-3.87,0-7-3.13-7-7v-14.2l-8.27-16.57c-1.08-2.17-.96-4.75.31-6.81s3.53-3.32,5.95-3.32h5.27c2.55,0,4.88,1.38,6.11,3.59,1.23-2.21,3.57-3.59,6.12-3.59h5.27c2.42,0,4.67,1.25,5.95,3.31s1.4,4.63.32,6.8l-8.23,16.58v14.21c0,3.87-3.13,7-7,7h-4.81Z"/>
        <path class="cls-3" d="M202.57,114.46c-10.6,0-16.94-8.03-16.94-15.8v-1.05c0-2.74,1.58-5.12,3.88-6.27-1.8-2.29-3.13-5.3-3.13-9.29,0-9.35,7.2-16.4,16.76-16.4s16.15,7.97,16.15,15.35v.65c0,2.47-1.28,4.64-3.22,5.89,2.03,2.5,3.54,5.87,3.54,10.46,0,9.38-7.32,16.45-17.04,16.45Z"/>
        <path class="cls-3" d="M231.75,114.01c-3.87,0-7-3.13-7-7v-22.2h-1.54c-3.87,0-7-3.13-7-7v-4.7c0-3.87,3.13-7,7-7h21.89c3.87,0,7,3.13,7,7v4.7c0,3.87-3.13,7-7,7h-1.54v22.2c0,3.87-3.13,7-7,7h-4.81Z"/>
        <path class="cls-3" d="M269.97,114.01c-3.25,0-6.07-2.24-6.81-5.4l-.02-.1-.02.07c-.73,3.18-3.56,5.43-6.82,5.43h-4.85c-2.16,0-4.2-1-5.53-2.7s-1.79-3.93-1.26-6.02l8.63-33.9c.79-3.1,3.58-5.27,6.78-5.27h6.12c3.2,0,5.99,2.17,6.78,5.27l8.63,33.9c.53,2.09.07,4.32-1.26,6.02s-3.37,2.7-5.53,2.7h-4.85Z"/>
        <path class="cls-3" d="M301,114.01c-2.29,0-4.4-1.11-5.69-2.93-1.27,1.77-3.35,2.93-5.69,2.93h-4.39c-3.87,0-7-3.13-7-7v-33.9c0-3.87,3.13-7,7-7h5.6c2.18,0,4.2,1.01,5.51,2.68,1.28-1.63,3.27-2.68,5.51-2.68h4.39c3.87,0,7,3.13,7,7v33.9c0,3.87-3.13,7-7,7h-5.23Z"/>
        <path class="cls-3" d="M319.36,114.01c-3.87,0-7-3.13-7-7v-33.9c0-3.87,3.13-7,7-7h2.99c13.44,0,23.57,10.6,23.57,24.65s-9.44,23.25-22.96,23.25h-3.59Z"/>
        <path class="cls-3" d="M360.85,114.46c-10.91,0-17.69-7.2-17.69-18.8v-22.55c0-3.87,3.13-7,7-7h4.81c2.47,0,4.63,1.28,5.88,3.2,1.25-1.93,3.42-3.2,5.88-3.2h4.81c3.87,0,7,3.13,7,7v22.55c0,11.6-6.78,18.8-17.69,18.8Z"/>
        <path class="cls-3" d="M384.32,114.01c-3.87,0-7-3.13-7-7v-33.9c0-3.87,3.13-7,7-7h10.69c10.77,0,17.74,6.71,17.74,17.1,0,9.59-6.62,16.18-16.62,16.76v7.04c0,3.87-3.13,7-7,7h-4.81Z"/>
      </g>
      <g>
        <path class="cls-4" d="M207.89,47.51c-.2,0-.38-.12-.46-.3l-10.43-23.69v23.49c0,.28-.22.5-.5.5h-4.39c-.28,0-.5-.22-.5-.5V13.1c0-.28.22-.5.5-.5h5.6c.2,0,.38.12.46.3l10.06,22.65V13.1c0-.28.22-.5.5-.5h4.39c.28,0,.5.22.5.5v33.9c0,.28-.22.5-.5.5h-5.23Z"/>
        <path class="cls-4" d="M235.78,47.96c-8.59,0-11.7-10.74-11.7-17.95s3.18-17.85,11.7-17.85,11.7,10.95,11.7,17.85-3.12,17.95-11.7,17.95ZM235.78,17.85c-5.32,0-5.89,8.67-5.89,12.4,0,2.82.43,12,5.89,12s5.89-10,5.89-12c0-2.91-.43-12.4-5.89-12.4Z"/>
        <path class="cls-4" d="M264.52,47.51c-.28,0-.5-.22-.5-.5v-28.7h-8.04c-.28,0-.5-.22-.5-.5v-4.7c0-.28.22-.5.5-.5h21.89c.28,0,.5.22.5.5v4.7c0,.28-.22.5-.5.5h-8.04v28.7c0,.28-.22.5-.5.5h-4.81Z"/>
        <path class="cls-4" d="M305.55,27.45v5.15c0,.28-.22.5-.5.5h-19.6c-.28,0-.5-.22-.5-.5v-5.15c0-.27.22-.5.5-.5h19.6c.28,0,.5.23.5.5Z"/>
        <path class="cls-4" d="M336.33,38c0,6.53-5.3,9.95-10.54,9.95s-10.44-3.48-10.44-9.3v-1.05c0-.27.22-.5.5-.5h4.81c.27,0,.49.22.5.5.04,2.82,1.86,4.65,4.63,4.65,2.29,0,4.73-1.1,4.73-4.2s-2.8-4.47-6.05-6.07l-.86-.43c-3.96-2.04-7.51-4.3-7.51-9.5,0-6.5,5.16-9.9,10.25-9.9,4.66,0,9.65,3.56,9.65,8.85v.65c0,.28-.22.5-.5.5h-4.81c-.14,0-.27-.06-.36-.16-.1-.1-.15-.23-.14-.37.07-1.07-.2-1.95-.82-2.61-.7-.75-1.81-1.16-3.11-1.16-1.99,0-4.36.65-4.36,3.75,0,2.24,1.7,3.38,3.37,4.2l2.8,1.4c4.35,2.23,8.26,4.74,8.26,10.8Z"/>
        <path class="cls-4" d="M357.63,47.96c-8.59,0-11.7-10.74-11.7-17.95s3.18-17.85,11.7-17.85,11.7,10.95,11.7,17.85-3.12,17.95-11.7,17.95ZM357.63,17.85c-5.32,0-5.89,8.67-5.89,12.4,0,2.82.43,12,5.89,12s5.89-10,5.89-12c0-2.91-.43-12.4-5.89-12.4Z"/>
        <path class="cls-4" d="M415.75,47.51c-.28,0-.5-.22-.5-.5V13.1c0-.28.22-.5.5-.5h2.99c9.73,0,17.07,7.8,17.07,18.15s-6.46,16.75-16.46,16.75h-3.59ZM421.06,41.81c2.66-.06,4.92-1.19,6.52-3.26,1.56-2.01,2.42-4.81,2.42-7.89,0-5.54-3.4-11.68-8.94-12.31v23.46Z"/>
        <path class="cls-4" d="M462.52,47.51c-.23,0-.43-.16-.49-.39l-2.2-9.36h-8.35l-2.15,9.36c-.05.23-.25.39-.49.39h-4.85c-.15,0-.3-.07-.4-.19s-.13-.28-.09-.43l8.63-33.9c.06-.22.26-.38.48-.38h6.12c.23,0,.43.16.48.38l8.63,33.9c.04.15,0,.31-.09.43s-.24.19-.39.19h-4.85ZM458.53,32.06l-2.83-12.2-2.87,12.2h5.7Z"/>
        <path class="cls-4" d="M478.87,47.51c-.28,0-.5-.22-.5-.5v-4.7c0-.28.22-.5.5-.5h5.19v-23.5h-4.26c-.28,0-.5-.22-.5-.5v-4.7c0-.28.22-.5.5-.5h14.28c.28,0,.5.22.5.5v4.7c0,.28-.22.5-.5.5h-4.21v23.5h5.19c.28,0,.5.22.5.5v4.7c0,.28-.22.5-.5.5h-16.2Z"/>
        <path class="cls-4" d="M507.78,47.51c-.28,0-.5-.22-.5-.5V13.1c0-.28.22-.5.5-.5h4.81c.28,0,.5.22.5.5v28.7h15.7c.28,0,.5.22.5.5v4.7c0,.28-.22.5-.5.5h-21Z"/>
        <path class="cls-4" d="M542.85,47.51c-.28,0-.5-.22-.5-.5v-15.73l-8.96-17.95c-.08-.16-.07-.34.02-.49.09-.15.25-.24.42-.24h5.27c.19,0,.37.11.45.28l5.66,11.81,5.66-11.81c.08-.17.26-.28.45-.28h5.27c.17,0,.33.09.42.24.09.15.1.33.02.49l-8.91,17.95v15.73c0,.28-.22.5-.5.5h-4.81Z"/>
        <path class="cls-4" d="M202.57,107.96c-5.13,0-10.44-3.48-10.44-9.3v-1.05c0-.28.22-.5.5-.5h4.81c.27,0,.5.22.5.49.04,2.83,1.86,4.66,4.63,4.66,2.29,0,4.73-1.1,4.73-4.2s-2.8-4.48-6.05-6.08l-.86-.43c-3.96-2.04-7.51-4.3-7.51-9.5,0-6.5,5.16-9.9,10.26-9.9,4.66,0,9.65,3.56,9.65,8.85v.65c0,.28-.22.5-.5.5h-4.81c-.14,0-.27-.06-.36-.16-.09-.1-.14-.24-.13-.37.07-1.07-.21-1.95-.82-2.61-.7-.75-1.81-1.16-3.11-1.16-1.99,0-4.35.65-4.35,3.75,0,2.24,1.7,3.38,3.36,4.2l2.8,1.4c4.35,2.23,8.26,4.73,8.26,10.8,0,6.53-5.3,9.95-10.54,9.95Z"/>
        <path class="cls-4" d="M231.75,107.51c-.28,0-.5-.22-.5-.5v-28.7h-8.04c-.28,0-.5-.22-.5-.5v-4.7c0-.28.22-.5.5-.5h21.89c.28,0,.5.22.5.5v4.7c0,.28-.22.5-.5.5h-8.04v28.7c0,.28-.22.5-.5.5h-4.81Z"/>
        <path class="cls-4" d="M269.97,107.51c-.23,0-.43-.16-.49-.39l-2.2-9.37h-8.35l-2.15,9.36c-.05.23-.25.39-.49.39h-4.85c-.15,0-.3-.07-.4-.19s-.13-.28-.09-.43l8.63-33.9c.06-.22.26-.38.48-.38h6.12c.23,0,.43.16.48.38l8.63,33.9c.04.15,0,.31-.09.43s-.24.19-.4.19h-4.85ZM265.98,92.06l-2.83-12.2-2.87,12.2h5.7Z"/>
        <path class="cls-4" d="M301,107.51c-.2,0-.38-.12-.46-.3l-10.43-23.69v23.49c0,.28-.22.5-.5.5h-4.39c-.28,0-.5-.22-.5-.5v-33.9c0-.28.22-.5.5-.5h5.6c.2,0,.38.12.46.3l10.06,22.65v-22.45c0-.28.22-.5.5-.5h4.39c.28,0,.5.22.5.5v33.9c0,.28-.22.5-.5.5h-5.23Z"/>
        <path class="cls-4" d="M319.36,107.51c-.28,0-.5-.22-.5-.5v-33.9c0-.28.22-.5.5-.5h2.99c9.73,0,17.07,7.8,17.07,18.15s-6.46,16.75-16.46,16.75h-3.59ZM324.67,101.81c2.66-.06,4.92-1.19,6.52-3.26,1.56-2.01,2.42-4.81,2.42-7.89,0-5.54-3.4-11.68-8.94-12.31v23.46Z"/>
        <path class="cls-4" d="M360.85,107.96c-7.32,0-11.19-4.25-11.19-12.3v-22.55c0-.28.22-.5.5-.5h4.81c.28,0,.5.22.5.5v22.2c0,5.2,1.36,6.95,5.38,6.95s5.38-1.75,5.38-6.95v-22.2c0-.28.22-.5.5-.5h4.81c.28,0,.5.22.5.5v22.55c0,8.05-3.87,12.3-11.19,12.3Z"/>
        <path class="cls-4" d="M384.32,107.51c-.28,0-.5-.22-.5-.5v-33.9c0-.28.22-.5.5-.5h10.69c7.14,0,11.24,3.86,11.24,10.6s-4.32,10.3-11.56,10.3h-5.05v13.5c0,.28-.22.5-.5.5h-4.81ZM394.78,87.8c3.86,0,5.66-1.49,5.66-4.7,0-4.01-2.06-4.8-5.61-4.8h-5.2v9.5h5.15Z"/>
      </g>
    </g>
    <g>
      <g>
        <polygon class="cls-4" points="125.47 64.92 103.64 76.59 114.45 98.87 89.91 95.46 85.58 119.85 67.74 102.66 49.89 119.85 45.56 95.46 21.03 98.87 31.84 76.59 10 64.92 31.84 53.26 21.03 30.98 45.56 34.39 49.89 10 67.74 27.19 85.58 10 89.91 34.39 114.45 30.98 103.64 53.26 125.47 64.92"/>
        <g>
          <path class="cls-4" d="M85.58,129.85c-2.55,0-5.05-.97-6.94-2.8l-10.91-10.5-10.91,10.5c-1.89,1.82-4.39,2.8-6.94,2.8-1.03,0-2.08-.16-3.09-.49-3.51-1.14-6.11-4.13-6.76-7.76l-2.65-14.91-15,2.08c-.46.06-.92.09-1.38.09-3.17,0-6.19-1.51-8.09-4.12-2.17-2.99-2.52-6.92-.91-10.25l6.61-13.62-13.35-7.14c-3.25-1.74-5.29-5.13-5.29-8.82s2.03-7.08,5.29-8.82l13.35-7.13-6.61-13.62c-1.61-3.32-1.26-7.26.91-10.24,1.9-2.61,4.92-4.12,8.09-4.12.46,0,.92.03,1.38.09l15,2.08,2.65-14.91c.65-3.64,3.24-6.62,6.76-7.76,1.01-.33,2.06-.49,3.09-.49,2.55,0,5.05.97,6.94,2.8l10.91,10.5,10.91-10.5c1.89-1.82,4.39-2.8,6.94-2.8,1.03,0,2.08.16,3.09.49,3.51,1.14,6.11,4.13,6.76,7.76l2.65,14.91,15-2.08c.46-.06.92-.09,1.38-.09,3.17,0,6.19,1.51,8.09,4.12,2.17,2.99,2.52,6.92.91,10.24l-6.61,13.62,13.35,7.13c3.25,1.74,5.29,5.13,5.29,8.82s-2.03,7.08-5.29,8.82l-13.35,7.14,6.61,13.63c1.61,3.32,1.26,7.26-.91,10.24-1.9,2.61-4.92,4.12-8.09,4.12-.46,0-.92-.03-1.38-.09l-15-2.08-2.65,14.91c-.65,3.64-3.24,6.62-6.76,7.76-1.01.33-2.06.49-3.09.49Z"/>
          <path class="cls-4" d="M85.58,129.85c-2.55,0-5.05-.97-6.94-2.8l-10.91-10.5-10.91,10.5c-1.89,1.82-4.39,2.8-6.94,2.8-1.03,0-2.08-.16-3.09-.49-3.51-1.14-6.11-4.13-6.76-7.76l-2.65-14.91-15,2.08c-.46.06-.92.09-1.38.09-3.17,0-6.19-1.51-8.09-4.12-2.17-2.99-2.52-6.92-.91-10.25l6.61-13.62-13.35-7.14c-3.25-1.74-5.29-5.13-5.29-8.82s2.03-7.08,5.29-8.82l13.35-7.13-6.61-13.62c-1.61-3.32-1.26-7.26.91-10.24,1.9-2.61,4.92-4.12,8.09-4.12.46,0,.92.03,1.38.09l15,2.08,2.65-14.91c.65-3.64,3.24-6.62,6.76-7.76,1.01-.33,2.06-.49,3.09-.49,2.55,0,5.05.97,6.94,2.8l10.91,10.5,10.91-10.5c1.89-1.82,4.39-2.8,6.94-2.8,1.03,0,2.08.16,3.09.49,3.51,1.14,6.11,4.13,6.76,7.76l2.65,14.91,15-2.08c.46-.06.92-.09,1.38-.09,3.17,0,6.19,1.51,8.09,4.12,2.17,2.99,2.52,6.92.91,10.24l-6.61,13.62,13.35,7.13c3.25,1.74,5.29,5.13,5.29,8.82s-2.03,7.08-5.29,8.82l-13.35,7.14,6.61,13.63c1.61,3.32,1.26,7.26-.91,10.24-1.9,2.61-4.92,4.12-8.09,4.12-.46,0-.92-.03-1.38-.09l-15-2.08-2.65,14.91c-.65,3.64-3.24,6.62-6.76,7.76-1.01.33-2.06.49-3.09.49Z"/>
        </g>
        <g>
          <path class="cls-3" d="M49.89,127.85c-.83,0-1.66-.13-2.47-.39-2.81-.91-4.89-3.3-5.4-6.21l-2.98-16.8-16.9,2.35c-.37.05-.74.08-1.1.08-2.54,0-4.95-1.21-6.47-3.3-1.74-2.39-2.02-5.54-.73-8.2l7.45-15.35-15.05-8.04c-2.6-1.39-4.23-4.1-4.23-7.06s1.63-5.67,4.23-7.06l15.05-8.04-7.45-15.35c-1.29-2.66-1.01-5.81.73-8.2,1.52-2.09,3.93-3.3,6.47-3.3.37,0,.73.03,1.1.08l16.9,2.35,2.98-16.8c.52-2.91,2.59-5.3,5.4-6.21.81-.26,1.64-.39,2.47-.39,2.04,0,4.04.78,5.55,2.24l12.29,11.84,12.29-11.84c1.51-1.46,3.51-2.24,5.55-2.24.83,0,1.66.13,2.47.39,2.81.91,4.89,3.3,5.4,6.21l2.98,16.8,16.9-2.35c.37-.05.74-.08,1.1-.08,2.54,0,4.95,1.21,6.47,3.3,1.74,2.39,2.02,5.54.73,8.2l-7.45,15.35,15.05,8.04c2.6,1.39,4.23,4.1,4.23,7.06s-1.63,5.66-4.23,7.06l-15.05,8.04,7.45,15.36c1.29,2.66,1.01,5.81-.73,8.2-1.52,2.09-3.93,3.3-6.47,3.3-.37,0-.73-.03-1.1-.08l-16.9-2.35-2.98,16.8c-.52,2.91-2.59,5.3-5.4,6.21-.81.26-1.64.39-2.47.39-2.04,0-4.04-.78-5.55-2.24l-12.29-11.84-12.29,11.84c-1.51,1.46-3.51,2.24-5.55,2.24Z"/>
          <path class="cls-3" d="M49.89,127.85c-.83,0-1.66-.13-2.47-.39-2.81-.91-4.89-3.3-5.4-6.21l-2.98-16.8-16.9,2.35c-.37.05-.74.08-1.1.08-2.54,0-4.95-1.21-6.47-3.3-1.74-2.39-2.02-5.54-.73-8.2l7.45-15.35-15.05-8.04c-2.6-1.39-4.23-4.1-4.23-7.06s1.63-5.67,4.23-7.06l15.05-8.04-7.45-15.35c-1.29-2.66-1.01-5.81.73-8.2,1.52-2.09,3.93-3.3,6.47-3.3.37,0,.73.03,1.1.08l16.9,2.35,2.98-16.8c.52-2.91,2.59-5.3,5.4-6.21.81-.26,1.64-.39,2.47-.39,2.04,0,4.04.78,5.55,2.24l12.29,11.84,12.29-11.84c1.51-1.46,3.51-2.24,5.55-2.24.83,0,1.66.13,2.47.39,2.81.91,4.89,3.3,5.4,6.21l2.98,16.8,16.9-2.35c.37-.05.74-.08,1.1-.08,2.54,0,4.95,1.21,6.47,3.3,1.74,2.39,2.02,5.54.73,8.2l-7.45,15.35,15.05,8.04c2.6,1.39,4.23,4.1,4.23,7.06s-1.63,5.66-4.23,7.06l-15.05,8.04,7.45,15.36c1.29,2.66,1.01,5.81-.73,8.2-1.52,2.09-3.93,3.3-6.47,3.3-.37,0-.73-.03-1.1-.08l-16.9-2.35-2.98,16.8c-.52,2.91-2.59,5.3-5.4,6.21-.81.26-1.64.39-2.47.39-2.04,0-4.04-.78-5.55-2.24l-12.29-11.84-12.29,11.84c-1.51,1.46-3.51,2.24-5.55,2.24Z"/>
        </g>
        <g>
          <polygon class="cls-4" points="125.47 64.92 103.64 76.59 114.45 98.87 89.91 95.46 85.58 119.85 67.74 102.66 49.89 119.85 45.56 95.46 21.03 98.87 31.84 76.59 10 64.92 31.84 53.26 21.03 30.98 45.56 34.39 49.89 10 67.74 27.19 85.58 10 89.91 34.39 114.45 30.98 103.64 53.26 125.47 64.92"/>
          <polygon class="cls-4" points="125.47 64.92 103.64 76.59 114.45 98.87 89.91 95.46 85.58 119.85 67.74 102.66 49.89 119.85 45.56 95.46 21.03 98.87 31.84 76.59 10 64.92 31.84 53.26 21.03 30.98 45.56 34.39 49.89 10 67.74 27.19 85.58 10 89.91 34.39 114.45 30.98 103.64 53.26 125.47 64.92"/>
        </g>
        <g>
          <polygon class="cls-4" points="125.47 64.92 103.64 76.59 114.45 98.87 89.91 95.46 85.58 119.85 67.74 102.66 49.89 119.85 45.56 95.46 21.03 98.87 31.84 76.59 10 64.92 31.84 53.26 21.03 30.98 45.56 34.39 49.89 10 67.74 27.19 85.58 10 89.91 34.39 114.45 30.98 103.64 53.26 125.47 64.92"/>
          <polygon class="cls-4" points="125.47 64.92 103.64 76.59 114.45 98.87 89.91 95.46 85.58 119.85 67.74 102.66 49.89 119.85 45.56 95.46 21.03 98.87 31.84 76.59 10 64.92 31.84 53.26 21.03 30.98 45.56 34.39 49.89 10 67.74 27.19 85.58 10 89.91 34.39 114.45 30.98 103.64 53.26 125.47 64.92"/>
        </g>
      </g>
      <g class="cls-21">
        <g>
          <path class="cls-3" d="M48.35,52.3c-.71-2.1.3-4.39,2.33-5.28l18.58-8.18,3.89,11.52-19.73,4.73c-2.15.52-4.34-.7-5.05-2.78Z"/>
          <path class="cls-3" d="M83.47,40.45c-1.48-4.38-6.22-6.73-10.6-5.25l-.77.26c-3.17,1.07-4.88,4.52-3.8,7.69l1.48,4.37c1.07,3.17,4.52,4.88,7.69,3.8l.77-.26c4.38-1.48,6.74-6.22,5.26-10.61h-.02Z"/>
          <path class="cls-3" d="M68.31,48.86h-4.58v40.11h4.58v-40.11Z"/>
          <path class="cls-3" d="M78.44,87.53c-1.66-2.66-4.58-4.29-7.72-4.29h-9.39c-3.14,0-6.06,1.62-7.72,4.29-1.33,2.13.19,4.88,2.7,4.88h19.41c2.51,0,4.03-2.76,2.7-4.88h.01Z"/>
        </g>
      </g>
    </g>
  </g>
</svg>